<svg width="30" height="30" viewBox="0 0 30 30" fill="none" xmlns="http://www.w3.org/2000/svg">
<g clip-path="url(#clip0_4762_384)">
<path d="M4.39715 0H0.88252C0.397305 0 0.00390625 0.393398 0.00390625 0.878672V4.45189C0.00390625 4.93717 0.397246 5.33057 0.882578 5.33057C1.36785 5.33057 1.76125 4.93717 1.76125 4.45189V1.75734H4.39721C4.88248 1.75734 5.27588 1.36395 5.27588 0.878672C5.27582 0.393398 4.88242 0 4.39715 0Z" fill="#05BF52"/>
<path d="M29.116 0H25.6013C25.1161 0 24.7227 0.393398 24.7227 0.878672C24.7227 1.36395 25.116 1.75734 25.6013 1.75734H28.2373V4.45189C28.2373 4.93717 28.6307 5.33057 29.116 5.33057C29.6012 5.33057 29.9946 4.93717 29.9946 4.45189V0.878672C29.9946 0.393398 29.6012 0 29.116 0Z" fill="#05BF52"/>
<path d="M4.39721 28.2344H1.76125V25.5398C1.76125 25.0545 1.36785 24.6611 0.882578 24.6611C0.397305 24.6611 0.00390625 25.0545 0.00390625 25.5398V29.113C0.00390625 29.5983 0.397246 29.9917 0.882578 29.9917H4.39721C4.88248 29.9917 5.27588 29.5983 5.27588 29.113C5.27588 28.6278 4.88248 28.2344 4.39721 28.2344Z" fill="#05BF52"/>
<path d="M29.116 24.6611C28.6307 24.6611 28.2373 25.0545 28.2373 25.5398V28.2344H25.6013C25.1161 28.2344 24.7227 28.6278 24.7227 29.113C24.7227 29.5983 25.1161 29.9917 25.6013 29.9917H29.116C29.6012 29.9917 29.9946 29.5983 29.9946 29.113V25.5398C29.9946 25.0545 29.6012 24.6611 29.116 24.6611Z" fill="#05BF52"/>
<path d="M27.6781 7.20835L15.4407 0.118389C15.1683 -0.0394629 14.8321 -0.0394629 14.5597 0.118389L2.31725 7.20829C2.04736 7.36468 1.87891 7.65583 1.87891 7.96802C1.87891 7.96978 1.87908 7.97153 1.87908 7.97323V22.0313C1.87908 22.3465 2.05035 22.6414 2.32615 22.7967L14.5598 29.8816C14.6915 29.958 14.8483 30 15.0003 30C15.1589 30 15.3139 29.9551 15.4408 29.8816L27.6694 22.7966C27.6715 22.7955 27.6735 22.7943 27.6755 22.7931C27.9589 22.5886 28.1117 22.4168 28.116 22.0419C28.116 22.0384 28.1163 22.0349 28.1163 22.0314V7.97335C28.1163 7.97159 28.1165 7.96983 28.1165 7.96813C28.1165 7.65565 27.9479 7.36444 27.6781 7.20835ZM14.1215 27.5968L4.52236 22.0353L11.9227 17.7914C12.3437 17.55 12.4892 17.013 12.2478 16.5921C12.0064 16.1711 11.4695 16.0256 11.0485 16.267L3.63625 20.5146V9.48683L14.1215 15.5085V27.5968ZM15.0002 13.9866L4.52107 7.9655L15.0002 1.89413L25.4794 7.9655L15.0002 13.9866ZM26.3647 20.5146L18.952 16.2669C18.531 16.0256 17.9941 16.171 17.7527 16.592C17.5112 17.013 17.6567 17.5499 18.0777 17.7913L25.4781 22.0351L15.8788 27.5967V15.5085L26.3646 9.48683V20.5146H26.3647Z" fill="#05BF52"/>
</g>
<defs>
<clipPath id="clip0_4762_384">
<rect width="30" height="30" fill="white"/>
</clipPath>
</defs>
</svg>
