<svg width="40" height="40" viewBox="0 0 40 40" fill="none" xmlns="http://www.w3.org/2000/svg">
<g id="diploma 1">
<path id="Vector" d="M34.375 31.875V5C34.374 4.1715 34.0444 3.37721 33.4586 2.79137C32.8727 2.20553 32.0785 1.87598 31.25 1.875H6.24996C5.42146 1.87598 4.62717 2.20553 4.04133 2.79137C3.45549 3.37721 3.12593 4.1715 3.12496 5V8.125H8.12496V10.0317C6.76851 10.1546 5.4792 10.6779 4.42083 11.5351C3.36246 12.3924 2.5828 13.5449 2.18089 14.8462C1.77899 16.1476 1.77299 17.539 2.16366 18.8438C2.55432 20.1486 3.32402 21.3078 4.37496 22.1741V30.5713L8.12496 26.8213V35C8.12593 35.8285 8.45549 36.6228 9.04133 37.2086C9.62717 37.7945 10.4215 38.124 11.25 38.125H33.75C34.5785 38.124 35.3727 37.7945 35.9586 37.2086C36.5444 36.6228 36.874 35.8285 36.875 35V31.875H34.375ZM4.37496 6.875V5C4.37496 4.50272 4.5725 4.02581 4.92413 3.67417C5.27576 3.32254 5.75268 3.125 6.24996 3.125C6.74724 3.125 7.22415 3.32254 7.57578 3.67417C7.92741 4.02581 8.12496 4.50272 8.12496 5V6.875H4.37496ZM3.12496 16.875C3.12496 15.7625 3.45486 14.6749 4.07294 13.7499C4.69102 12.8249 5.56953 12.1039 6.59736 11.6782C7.6252 11.2524 8.7562 11.141 9.84734 11.3581C10.9385 11.5751 11.9408 12.1109 12.7274 12.8975C13.5141 13.6842 14.0498 14.6865 14.2669 15.7776C14.4839 16.8688 14.3725 17.9998 13.9468 19.0276C13.521 20.0554 12.8001 20.9339 11.875 21.552C10.95 22.1701 9.86248 22.5 8.74996 22.5C7.25862 22.4983 5.82884 21.9052 4.77431 20.8506C3.71978 19.7961 3.12661 18.3663 3.12496 16.875ZM5.62496 22.9911C6.59114 23.4898 7.66265 23.75 8.74996 23.75C9.83726 23.75 10.9088 23.4898 11.875 22.9911V27.5536L8.74996 24.4286L5.62496 27.5536V22.9911ZM13.125 35C13.125 35.4973 12.9274 35.9742 12.5758 36.3258C12.2242 36.6775 11.7472 36.875 11.25 36.875C10.7527 36.875 10.2758 36.6775 9.92413 36.3258C9.5725 35.9742 9.37496 35.4973 9.37496 35V26.8213L13.125 30.5713V22.1741C14.1759 21.3078 14.9456 20.1486 15.3363 18.8438C15.7269 17.539 15.7209 16.1476 15.319 14.8462C14.9171 13.5449 14.1375 12.3924 13.0791 11.5351C12.0207 10.6779 10.7314 10.1546 9.37496 10.0317V5C9.37581 4.3235 9.15594 3.6652 8.74871 3.125H31.25C31.7471 3.12555 32.2237 3.32327 32.5752 3.67478C32.9267 4.02629 33.1244 4.50289 33.125 5V31.875H13.125V35ZM35.625 35C35.6244 35.4971 35.4267 35.9737 35.0752 36.3252C34.7237 36.6767 34.2471 36.8745 33.75 36.875H13.7487C14.1559 36.3348 14.3758 35.6765 14.375 35V33.125H35.625V35Z" fill="#0B7C4F"/>
<path id="Vector_2" d="M12.5 5.625H21.25V6.875H12.5V5.625Z" fill="#0B7C4F"/>
<path id="Vector_3" d="M18.125 11.25H22.5V12.5H18.125V11.25Z" fill="#0B7C4F"/>
<path id="Vector_4" d="M18.125 15H26.875V16.25H18.125V15Z" fill="#0B7C4F"/>
<path id="Vector_5" d="M18.125 18.75H26.875V20H18.125V18.75Z" fill="#0B7C4F"/>
<path id="Vector_6" d="M18.125 22.5H26.875V23.75H18.125V22.5Z" fill="#0B7C4F"/>
<path id="Vector_7" d="M21.875 28.125H30.625V29.375H21.875V28.125Z" fill="#0B7C4F"/>
<path id="Vector_8" d="M28.75 5C28.2555 5 27.7722 5.14662 27.3611 5.42133C26.95 5.69603 26.6295 6.08648 26.4403 6.54329C26.2511 7.00011 26.2016 7.50277 26.298 7.98773C26.3945 8.47268 26.6326 8.91814 26.9822 9.26777C27.3319 9.6174 27.7773 9.8555 28.2623 9.95196C28.7472 10.0484 29.2499 9.99892 29.7067 9.8097C30.1635 9.62048 30.554 9.30005 30.8287 8.88893C31.1034 8.4778 31.25 7.99445 31.25 7.5C31.2494 6.83716 30.9858 6.20165 30.5171 5.73295C30.0484 5.26424 29.4128 5.00065 28.75 5ZM28.75 8.75C28.5028 8.75 28.2611 8.67669 28.0555 8.53934C27.85 8.40199 27.6898 8.20676 27.5952 7.97835C27.5005 7.74995 27.4758 7.49861 27.524 7.25614C27.5723 7.01366 27.6913 6.79093 27.8661 6.61612C28.0409 6.4413 28.2637 6.32225 28.5061 6.27402C28.7486 6.22579 28.9999 6.25054 29.2284 6.34515C29.4568 6.43976 29.652 6.59998 29.7893 6.80554C29.9267 7.0111 30 7.25277 30 7.5C29.9996 7.83138 29.8677 8.14907 29.6334 8.38339C29.3991 8.61771 29.0814 8.74955 28.75 8.75Z" fill="#0B7C4F"/>
<path id="Vector_9" d="M8.75 20.625C9.49168 20.625 10.2167 20.4051 10.8334 19.993C11.4501 19.581 11.9307 18.9953 12.2145 18.3101C12.4984 17.6248 12.5726 16.8708 12.4279 16.1434C12.2833 15.416 11.9261 14.7478 11.4017 14.2234C10.8772 13.6989 10.209 13.3418 9.48159 13.1971C8.75416 13.0524 8.00016 13.1266 7.31494 13.4105C6.62971 13.6943 6.04404 14.1749 5.63199 14.7916C5.21993 15.4083 5 16.1333 5 16.875C5.00109 17.8692 5.39653 18.8224 6.09956 19.5254C6.80258 20.2285 7.75577 20.6239 8.75 20.625ZM8.75 14.375C9.24445 14.375 9.7278 14.5216 10.1389 14.7963C10.55 15.071 10.8705 15.4615 11.0597 15.9183C11.2489 16.3751 11.2984 16.8778 11.202 17.3627C11.1055 17.8477 10.8674 18.2931 10.5178 18.6428C10.1681 18.9924 9.72268 19.2305 9.23773 19.327C8.75277 19.4234 8.25011 19.3739 7.79329 19.1847C7.33648 18.9955 6.94603 18.675 6.67133 18.2639C6.39662 17.8528 6.25 17.3695 6.25 16.875C6.25065 16.2122 6.51424 15.5766 6.98295 15.1079C7.45165 14.6392 8.08716 14.3756 8.75 14.375Z" fill="#0B7C4F"/>
</g>
</svg>
