<svg width="40" height="40" viewBox="0 0 40 40" fill="none" xmlns="http://www.w3.org/2000/svg">
<g id="document 1">
<g id="Group">
<g id="Group_2">
<path id="Vector" d="M13.332 28.6665H11.9987C11.6305 28.6665 11.332 28.965 11.332 29.3332C11.332 29.7013 11.6305 29.9998 11.9987 29.9998H13.332C13.7002 29.9998 13.9987 29.7013 13.9987 29.3332C13.9987 28.965 13.7002 28.6665 13.332 28.6665Z" fill="#0B7C4F"/>
</g>
</g>
<g id="Group_3">
<g id="Group_4">
<path id="Vector_2" d="M31.9987 28.6665H15.9987C15.6305 28.6665 15.332 28.965 15.332 29.3332C15.332 29.7013 15.6305 29.9998 15.9987 29.9998H31.9987C32.3669 29.9998 32.6654 29.7013 32.6654 29.3332C32.6654 28.965 32.3669 28.6665 31.9987 28.6665Z" fill="#0B7C4F"/>
</g>
</g>
<g id="Group_5">
<g id="Group_6">
<path id="Vector_3" d="M13.332 24.6665H11.9987C11.6305 24.6665 11.332 24.965 11.332 25.3332C11.332 25.7013 11.6305 25.9998 11.9987 25.9998H13.332C13.7002 25.9998 13.9987 25.7013 13.9987 25.3332C13.9987 24.965 13.7002 24.6665 13.332 24.6665Z" fill="#0B7C4F"/>
</g>
</g>
<g id="Group_7">
<g id="Group_8">
<path id="Vector_4" d="M31.9987 24.6665H15.9987C15.6305 24.6665 15.332 24.965 15.332 25.3332C15.332 25.7013 15.6305 25.9998 15.9987 25.9998H31.9987C32.3669 25.9998 32.6654 25.7013 32.6654 25.3332C32.6654 24.965 32.3669 24.6665 31.9987 24.6665Z" fill="#0B7C4F"/>
</g>
</g>
<g id="Group_9">
<g id="Group_10">
<path id="Vector_5" d="M13.332 20.6665H11.9987C11.6305 20.6665 11.332 20.965 11.332 21.3332C11.332 21.7013 11.6305 21.9998 11.9987 21.9998H13.332C13.7002 21.9998 13.9987 21.7013 13.9987 21.3332C13.9987 20.965 13.7002 20.6665 13.332 20.6665Z" fill="#0B7C4F"/>
</g>
</g>
<g id="Group_11">
<g id="Group_12">
<path id="Vector_6" d="M31.9987 20.6665H15.9987C15.6305 20.6665 15.332 20.965 15.332 21.3332C15.332 21.7013 15.6305 21.9998 15.9987 21.9998H31.9987C32.3669 21.9998 32.6654 21.7013 32.6654 21.3332C32.6654 20.965 32.3669 20.6665 31.9987 20.6665Z" fill="#0B7C4F"/>
</g>
</g>
<g id="Group_13">
<g id="Group_14">
<path id="Vector_7" d="M13.332 16.6665H11.9987C11.6305 16.6665 11.332 16.965 11.332 17.3332C11.332 17.7013 11.6305 17.9998 11.9987 17.9998H13.332C13.7002 17.9998 13.9987 17.7013 13.9987 17.3332C13.9987 16.965 13.7002 16.6665 13.332 16.6665Z" fill="#0B7C4F"/>
</g>
</g>
<g id="Group_15">
<g id="Group_16">
<path id="Vector_8" d="M31.9987 16.6665H15.9987C15.6305 16.6665 15.332 16.965 15.332 17.3332C15.332 17.7013 15.6305 17.9998 15.9987 17.9998H31.9987C32.3669 17.9998 32.6654 17.7013 32.6654 17.3332C32.6654 16.965 32.3669 16.6665 31.9987 16.6665Z" fill="#0B7C4F"/>
</g>
</g>
<g id="Group_17">
<g id="Group_18">
<path id="Vector_9" d="M13.332 12.6665H11.9987C11.6305 12.6665 11.332 12.965 11.332 13.3332C11.332 13.7013 11.6305 13.9998 11.9987 13.9998H13.332C13.7002 13.9998 13.9987 13.7013 13.9987 13.3332C13.9987 12.965 13.7002 12.6665 13.332 12.6665Z" fill="#0B7C4F"/>
</g>
</g>
<g id="Group_19">
<g id="Group_20">
<path id="Vector_10" d="M31.9987 12.6665H15.9987C15.6305 12.6665 15.332 12.965 15.332 13.3332C15.332 13.7013 15.6305 13.9998 15.9987 13.9998H31.9987C32.3669 13.9998 32.6654 13.7013 32.6654 13.3332C32.6654 12.965 32.3669 12.6665 31.9987 12.6665Z" fill="#0B7C4F"/>
</g>
</g>
<g id="Group_21">
<g id="Group_22">
<path id="Vector_11" d="M36.6567 9.958C36.6534 9.89958 36.6419 9.84192 36.6227 9.78667C36.6154 9.76533 36.61 9.74467 36.6007 9.724C36.5683 9.6515 36.5231 9.58533 36.4674 9.52867L27.134 0.195333C27.0774 0.139583 27.0112 0.0944167 26.9387 0.062C26.918 0.0526667 26.8974 0.0473333 26.8767 0.04C26.8209 0.0208333 26.7629 0.00916667 26.704 0.00533333C26.6927 0.00733333 26.68 0 26.6654 0H7.9987C7.63053 0 7.33203 0.2985 7.33203 0.666667V2.66667H3.9987C3.63053 2.66667 3.33203 2.96517 3.33203 3.33333V39.3333C3.33203 39.7015 3.63053 40 3.9987 40H31.9987C32.3669 40 32.6654 39.7015 32.6654 39.3333V36H35.9987C36.3669 36 36.6654 35.7015 36.6654 35.3333V10C36.6654 9.98533 36.658 9.97267 36.6567 9.958ZM27.332 2.276L34.3894 9.33333H27.332V2.276ZM31.332 38.6667H4.66536V4H7.33203V35.3333C7.33203 35.7015 7.63053 36 7.9987 36H31.332V38.6667ZM35.332 34.6667H8.66536V1.33333H25.9987V10C25.9987 10.3682 26.2972 10.6667 26.6654 10.6667H35.332V34.6667Z" fill="#0B7C4F"/>
</g>
</g>
<g id="Group_23">
<g id="Group_24">
<path id="Vector_12" d="M15.9987 6H11.9987C11.6305 6 11.332 6.2985 11.332 6.66667V10.6667C11.332 11.0348 11.6305 11.3333 11.9987 11.3333H15.9987C16.3669 11.3333 16.6654 11.0348 16.6654 10.6667V6.66667C16.6654 6.2985 16.3669 6 15.9987 6ZM15.332 10H12.6654V7.33333H15.332V10Z" fill="#0B7C4F"/>
</g>
</g>
</g>
</svg>
