<svg width="24" height="24" viewBox="0 0 24 24" fill="none" xmlns="http://www.w3.org/2000/svg">
<g id="map 1">
<path id="Vector" d="M12 0.75C9.81196 0.75 7.71354 1.61919 6.16637 3.16637C4.61919 4.71354 3.75 6.81196 3.75 9C3.75 13.3575 11.1 22.575 11.415 22.9725C11.4853 23.0601 11.5743 23.1308 11.6756 23.1794C11.7768 23.2279 11.8877 23.2532 12 23.2532C12.1123 23.2532 12.2232 23.2279 12.3244 23.1794C12.4257 23.1308 12.5147 23.0601 12.585 22.9725C12.9 22.575 20.25 13.3575 20.25 9C20.25 6.81196 19.3808 4.71354 17.8336 3.16637C16.2865 1.61919 14.188 0.75 12 0.75ZM12 21.285C9.6825 18.285 5.25 11.91 5.25 9C5.25 7.20979 5.96116 5.4929 7.22703 4.22703C8.4929 2.96116 10.2098 2.25 12 2.25C13.7902 2.25 15.5071 2.96116 16.773 4.22703C18.0388 5.4929 18.75 7.20979 18.75 9C18.75 11.91 14.3175 18.27 12 21.285Z" fill="#0B7C4F"/>
<path id="Vector_2" d="M12 3.75C11.11 3.75 10.24 4.01392 9.49994 4.50839C8.75991 5.00285 8.18314 5.70565 7.84254 6.52792C7.50195 7.35019 7.41283 8.25499 7.58647 9.1279C7.7601 10.0008 8.18869 10.8026 8.81802 11.432C9.44736 12.0613 10.2492 12.4899 11.1221 12.6635C11.995 12.8372 12.8998 12.748 13.7221 12.4074C14.5443 12.0669 15.2471 11.4901 15.7416 10.7501C16.2361 10.01 16.5 9.14001 16.5 8.24999C16.5 7.05652 16.0259 5.91193 15.182 5.06802C14.3381 4.22411 13.1935 3.75 12 3.75ZM12 11.25C11.4067 11.25 10.8266 11.074 10.3333 10.7444C9.83994 10.4148 9.45543 9.94622 9.22836 9.39804C9.0013 8.84987 8.94189 8.24667 9.05765 7.66472C9.1734 7.08278 9.45912 6.54823 9.87868 6.12868C10.2982 5.70912 10.8328 5.4234 11.4147 5.30764C11.9967 5.19189 12.5999 5.2513 13.1481 5.47836C13.6962 5.70542 14.1648 6.08994 14.4944 6.58329C14.8241 7.07663 15 7.65665 15 8.24999C15 9.04564 14.6839 9.8087 14.1213 10.3713C13.5587 10.9339 12.7957 11.25 12 11.25Z" fill="#0B7C4F"/>
</g>
</svg>
