<svg width="127" height="127" viewBox="0 0 127 127" fill="none" xmlns="http://www.w3.org/2000/svg">
<path d="M41.1824 105.994C41.7159 106.198 42.3136 105.928 42.5183 105.393C42.721 104.859 42.4518 104.261 41.9172 104.057L37.6215 102.428C57.8389 97.0085 72.5876 86.8312 81.4606 72.1308C96.2732 47.5854 89.3094 18.6427 89.2372 18.3533C89.0986 17.7977 88.5373 17.4608 87.9824 17.5981L87.9744 17.6002C87.4238 17.7417 87.0897 18.3012 87.2272 18.8529C87.2974 19.1342 94.0607 47.2431 79.6864 71.0601C71.141 85.2176 56.9095 95.0855 37.3742 100.355L40.1433 97.2226C40.5217 96.7938 40.4817 96.1391 40.054 95.7604C39.7867 95.5233 39.4303 95.4513 39.1094 95.5338C38.9158 95.5836 38.7347 95.69 38.5921 95.8507L32.5279 102.711L41.1824 105.994Z" fill="#05BF52"/>
</svg>
