<svg width="32" height="32" viewBox="0 0 32 32" fill="none" xmlns="http://www.w3.org/2000/svg">
<g id="zoom-in &#208;&#186;&#208;&#190;&#208;&#191;&#209;&#150;&#209;&#143; 1" clip-path="url(#clip0_4762_1094)">
<path id="Vector" d="M31.609 29.7237L23.6504 21.765C25.8192 19.1125 26.8855 15.7278 26.6288 12.3111C26.3721 8.89442 24.812 5.70708 22.2712 3.4084C19.7303 1.10972 16.4032 -0.124434 12.9779 -0.038792C9.55263 0.0468505 6.29131 1.44574 3.86853 3.86853C1.44574 6.29131 0.0468505 9.55263 -0.038792 12.9779C-0.124434 16.4032 1.10972 19.7303 3.4084 22.2712C5.70708 24.812 8.89442 26.3721 12.3111 26.6288C15.7278 26.8855 19.1125 25.8192 21.765 23.6504L29.7237 31.609C29.9752 31.8519 30.312 31.9863 30.6616 31.9833C31.0112 31.9802 31.3456 31.84 31.5928 31.5928C31.84 31.3456 31.9802 31.0112 31.9833 30.6616C31.9863 30.312 31.8519 29.9752 31.609 29.7237ZM13.333 23.9997C11.2234 23.9997 9.16108 23.3741 7.40696 22.2021C5.65284 21.03 4.28566 19.3641 3.47833 17.415C2.67099 15.4659 2.45976 13.3212 2.87133 11.2521C3.28291 9.18295 4.29881 7.28233 5.79057 5.79057C7.28233 4.29881 9.18295 3.28291 11.2521 2.87133C13.3212 2.45976 15.4659 2.67099 17.415 3.47833C19.3641 4.28566 21.03 5.65284 22.2021 7.40696C23.3741 9.16108 23.9997 11.2234 23.9997 13.333C23.9965 16.161 22.8717 18.8723 20.872 20.872C18.8723 22.8717 16.161 23.9965 13.333 23.9997Z" fill="white"/>
<path id="Vector_2" d="M17.3333 12H14.6667V9.33333C14.6667 8.97971 14.5262 8.64057 14.2761 8.39052C14.0261 8.14048 13.687 8 13.3333 8C12.9797 8 12.6406 8.14048 12.3905 8.39052C12.1405 8.64057 12 8.97971 12 9.33333V12H9.33333C8.97971 12 8.64057 12.1405 8.39052 12.3905C8.14048 12.6406 8 12.9797 8 13.3333C8 13.687 8.14048 14.0261 8.39052 14.2761C8.64057 14.5262 8.97971 14.6667 9.33333 14.6667H12V17.3333C12 17.687 12.1405 18.0261 12.3905 18.2761C12.6406 18.5262 12.9797 18.6667 13.3333 18.6667C13.687 18.6667 14.0261 18.5262 14.2761 18.2761C14.5262 18.0261 14.6667 17.687 14.6667 17.3333V14.6667H17.3333C17.687 14.6667 18.0261 14.5262 18.2761 14.2761C18.5262 14.0261 18.6667 13.687 18.6667 13.3333C18.6667 12.9797 18.5262 12.6406 18.2761 12.3905C18.0261 12.1405 17.687 12 17.3333 12Z" fill="white"/>
</g>
<defs>
<clipPath id="clip0_4762_1094">
<rect width="32" height="32" fill="white"/>
</clipPath>
</defs>
</svg>
