<svg width="54" height="54" viewBox="0 0 54 54" fill="none" xmlns="http://www.w3.org/2000/svg">
<g clip-path="url(#clip0_4762_834)">
<path d="M33.0268 26.9983C33.0268 25.3878 32.3998 23.8742 31.261 22.7354C28.9106 20.3851 25.0861 20.3851 22.7358 22.7354C20.385 25.0858 20.385 28.9103 22.7358 31.2607C23.9107 32.4361 25.4545 33.0236 26.9982 33.0236C28.5423 33.0236 30.086 32.4361 31.261 31.2607C32.3998 30.1224 33.0268 28.6083 33.0268 26.9983ZM23.8543 30.1418C23.0147 29.3021 22.552 28.1856 22.552 26.9979C22.552 25.8105 23.0147 24.694 23.8543 23.854C24.7211 22.9872 25.8594 22.5538 26.9982 22.5538C28.1369 22.5538 29.2756 22.9876 30.1421 23.854C30.9821 24.694 31.4444 25.8105 31.4444 26.9979C31.4444 28.1856 30.9821 29.3021 30.1421 30.1418C28.4084 31.8758 25.5879 31.8758 23.8543 30.1418Z" fill="#0B7C4F"/>
<path d="M53.4291 9.08351C52.7361 7.48459 51.4738 5.72375 49.8749 4.12483C48.2764 2.52632 46.5151 1.26399 44.9166 0.571024C43.1208 -0.207633 41.6669 -0.188269 40.8103 0.618815C40.7984 0.628702 40.7868 0.639002 40.7757 0.649714C40.772 0.653421 40.7675 0.656717 40.7638 0.660425C40.7584 0.666193 40.7539 0.672373 40.7481 0.677729C40.7428 0.683909 40.7366 0.689264 40.7312 0.695444L40.6336 0.805857C40.627 0.813685 40.6196 0.820688 40.613 0.828928L35.7083 6.36398C35.4186 6.69069 35.4487 7.19084 35.7758 7.48047C35.9262 7.61395 36.1137 7.67946 36.2999 7.67946C36.5187 7.67946 36.7362 7.58965 36.8923 7.41331L40.2603 3.61232C40.3481 3.96251 40.4729 4.33165 40.6348 4.71686C40.6361 4.72015 40.6369 4.72345 40.6385 4.72674C40.6406 4.7321 40.6431 4.73704 40.6451 4.7424C40.6554 4.76629 40.6641 4.78937 40.6744 4.81326C40.7036 4.88041 40.7349 4.94798 40.7658 5.01555C40.77 5.02379 40.7733 5.03203 40.7774 5.04027C40.8198 5.13255 40.8647 5.22525 40.9109 5.31836C40.9166 5.32948 40.922 5.34061 40.9273 5.35173C40.9718 5.44072 41.0184 5.53053 41.0662 5.61993C41.0748 5.636 41.0827 5.65166 41.0913 5.66772C41.1366 5.75177 41.1836 5.83664 41.2318 5.9211C41.2442 5.94293 41.2557 5.96435 41.2685 5.98619C41.3134 6.06447 41.3599 6.14275 41.4073 6.22143C41.4242 6.24945 41.4407 6.27788 41.458 6.3063C41.5016 6.37799 41.547 6.44968 41.5923 6.52136C41.6149 6.55679 41.6368 6.59222 41.6594 6.62765C41.7015 6.69234 41.7447 6.75743 41.788 6.82211C41.816 6.86455 41.8436 6.90698 41.8724 6.949C41.9124 7.00751 41.9532 7.06601 41.994 7.1241C42.0282 7.17271 42.0615 7.22133 42.0961 7.26994C42.1336 7.32268 42.1728 7.37541 42.2115 7.42815C42.2506 7.48212 42.2894 7.53568 42.3297 7.58965C42.3664 7.63826 42.4039 7.68687 42.441 7.73508C42.4851 7.79276 42.5283 7.85043 42.5732 7.9077C42.6095 7.95384 42.6466 7.99999 42.6836 8.04572C42.731 8.10545 42.7776 8.16478 42.8262 8.22411C42.8641 8.27025 42.9032 8.31639 42.9415 8.36253C42.9902 8.42104 43.0384 8.47954 43.0882 8.53804C43.1315 8.58872 43.1764 8.63939 43.2205 8.69006C43.2666 8.74321 43.3123 8.79636 43.3593 8.8495C43.4141 8.9113 43.4701 8.97228 43.5262 9.03407C43.5636 9.07568 43.6007 9.1173 43.639 9.15849C43.7214 9.2479 43.8055 9.33647 43.8904 9.42505C43.9031 9.43823 43.9151 9.45183 43.9278 9.46501C44.0267 9.56801 44.1268 9.67018 44.2286 9.77153C44.3299 9.87329 44.4321 9.97299 44.5347 10.0719C44.5508 10.0871 44.5668 10.1019 44.5829 10.1172C44.6686 10.1992 44.7547 10.2807 44.8412 10.3607C44.8837 10.3998 44.9261 10.4377 44.9685 10.476C45.0291 10.5312 45.0896 10.5869 45.1506 10.6408C45.2042 10.6882 45.2582 10.7343 45.3121 10.7813C45.362 10.825 45.4118 10.8691 45.4621 10.9119C45.5202 10.9609 45.5783 11.0087 45.6359 11.0569C45.6829 11.0961 45.7295 11.1356 45.7764 11.1739C45.8345 11.2213 45.8926 11.267 45.9507 11.3136C45.9981 11.3515 46.0455 11.3898 46.0928 11.4273C46.1489 11.471 46.2049 11.5134 46.2609 11.5563C46.3108 11.5946 46.361 11.6333 46.4109 11.6708C46.4632 11.7099 46.5155 11.7474 46.5674 11.7857C46.6222 11.8253 46.6766 11.8657 46.731 11.9048C46.7776 11.9382 46.8241 11.9699 46.8707 12.0024C46.9312 12.0449 46.9918 12.0873 47.0519 12.1285C47.0919 12.1557 47.1319 12.1817 47.1722 12.2084C47.2394 12.2533 47.3066 12.2983 47.3737 12.3415C47.4067 12.3629 47.4396 12.3831 47.4726 12.4041C47.5467 12.4511 47.6209 12.4981 47.6951 12.543C47.7214 12.559 47.7474 12.5743 47.7737 12.5899C47.8545 12.6386 47.9352 12.6868 48.0156 12.7329C48.0349 12.744 48.0547 12.7547 48.0741 12.7659C48.161 12.8149 48.2479 12.8635 48.3345 12.9101C48.3476 12.9171 48.3612 12.9241 48.3748 12.9311C48.4667 12.9805 48.5586 13.0279 48.65 13.0736C48.6591 13.0781 48.6682 13.0827 48.6768 13.0868C48.7724 13.1346 48.8672 13.1799 48.9619 13.2236C48.9681 13.2265 48.9743 13.2293 48.98 13.2322C49.0493 13.264 49.1185 13.2961 49.1869 13.3257C49.212 13.3365 49.2363 13.3455 49.261 13.3562C49.2651 13.3579 49.2693 13.3599 49.2734 13.3616C49.2759 13.3628 49.2787 13.3632 49.2812 13.3645C49.6668 13.5268 50.0364 13.652 50.3874 13.7402L36.1569 26.3503C36.1355 26.3137 36.1137 26.277 36.0902 26.2412C35.8356 25.8473 35.7585 25.3616 35.8793 24.908C36.3052 23.3029 35.4586 21.6409 33.9095 21.0423C33.472 20.873 33.1239 20.5248 32.955 20.0873C32.3563 18.5382 30.6944 17.692 29.0889 18.1176C28.6353 18.2383 28.1495 18.1608 27.7557 17.9066C27.7211 17.884 27.6856 17.863 27.6506 17.8424L34.4398 10.1806C34.7298 9.85352 34.6993 9.35378 34.3726 9.06374C34.0451 8.77411 33.5453 8.80418 33.2557 9.1313L25.9413 17.3855C25.0106 17.3999 24.0981 17.8135 23.4702 18.5852C23.1744 18.949 22.736 19.1727 22.2676 19.1982C20.6089 19.2889 19.2902 20.6076 19.1995 22.2663C19.174 22.7347 18.9507 23.1731 18.5865 23.4689C17.8148 24.0968 17.4012 25.0093 17.3868 25.94L0.69633 40.7299C0.684382 40.7406 0.672846 40.7514 0.661723 40.7629C-0.18862 41.6128 -0.220343 43.0877 0.571909 44.9153C1.26528 46.5142 2.5272 48.2751 4.12613 49.874C5.72464 51.4725 7.48589 52.7348 9.0844 53.4278C9.96482 53.8093 10.7628 54.0001 11.4492 54.0001C12.1879 54.0001 12.7964 53.7792 13.2372 53.3384C13.2484 53.3273 13.2595 53.3157 13.2698 53.3038L16.2147 49.9807C16.5043 49.6536 16.4742 49.1534 16.1475 48.8638C15.82 48.5738 15.3202 48.6043 15.0306 48.931L12.1055 52.2318C11.483 52.8049 8.61473 52.1251 5.24467 48.755C2.10904 45.6194 1.09802 42.6144 1.7675 41.8946L17.8433 27.6493C17.8639 27.6843 17.8853 27.7198 17.9075 27.7544C18.1621 28.1482 18.2392 28.6344 18.1189 29.0876C17.6925 30.6931 18.5391 32.355 20.0886 32.9537C20.5261 33.1226 20.8738 33.4707 21.0432 33.9082C21.6418 35.4573 23.3037 36.3044 24.9088 35.878C25.3624 35.7577 25.8482 35.8347 26.2424 36.0893C26.2787 36.1124 26.3158 36.133 26.3524 36.1548L17.4721 46.1764C17.182 46.5035 17.2121 47.0033 17.5392 47.2929C17.69 47.4264 17.877 47.4923 18.0637 47.4923C18.282 47.4923 18.4996 47.4021 18.6561 47.2257L26.8266 38.0059L28.4993 43.4359C28.618 43.8219 28.9377 44.114 29.3332 44.198C29.4098 44.2141 29.4873 44.2219 29.5639 44.2219C29.8824 44.2219 30.1905 44.0852 30.4043 43.8396L32.5244 41.4072L35.3762 42.2613C35.7709 42.3791 36.1965 42.2708 36.4869 41.9778C36.777 41.6853 36.882 41.2589 36.7605 40.8651L34.9329 34.932L40.866 36.7596C40.9743 36.793 41.0851 36.809 41.1951 36.809C41.4843 36.809 41.767 36.6962 41.9791 36.4856C42.2717 36.1952 42.38 35.7696 42.2618 35.3749L41.4081 32.5231L43.8409 30.4035C44.1454 30.1377 44.2826 29.7274 44.1989 29.3319C44.1149 28.9368 43.8228 28.6171 43.4368 28.498L38.0068 26.8253L53.3047 13.2689C53.3113 13.2631 53.317 13.2569 53.3232 13.2508C53.3286 13.2458 53.3343 13.2413 53.3393 13.2363C53.343 13.2326 53.3463 13.2285 53.35 13.2244C53.3607 13.2133 53.3714 13.2013 53.3813 13.1898C54.1884 12.3329 54.2073 10.8794 53.4291 9.08351ZM27.8307 35.0181C27.8245 35.0173 27.8183 35.0169 27.8121 35.0165C27.5658 34.9872 27.3227 34.9032 27.1014 34.7602C26.5716 34.4179 25.9561 34.2403 25.3353 34.2403C25.0567 34.2403 24.7766 34.2761 24.503 34.3487C23.6791 34.5674 22.8262 34.1328 22.5189 33.3376C22.1897 32.4852 21.5116 31.8071 20.6588 31.4775C19.8641 31.1706 19.4294 30.3174 19.6482 29.4938C19.8826 28.6101 19.7326 27.6629 19.2366 26.8954C19.0945 26.6758 19.0108 26.4344 18.9812 26.1901C18.9803 26.1822 18.9795 26.1744 18.9787 26.1666C18.9206 25.6219 19.1332 25.0637 19.5847 24.6962C20.2942 24.1194 20.7292 23.265 20.7791 22.352C20.8256 21.5012 21.5025 20.8243 22.3537 20.7778C23.2662 20.7279 24.1207 20.2925 24.6975 19.5834C25.0662 19.1302 25.6261 18.9177 26.1724 18.9774C26.179 18.9782 26.1856 18.979 26.1922 18.9799C26.4365 19.0095 26.6775 19.0932 26.8967 19.2349C27.6642 19.7313 28.6114 19.8809 29.4951 19.6465C30.3191 19.4277 31.1719 19.8623 31.4788 20.6575C31.8084 21.5099 32.4865 22.188 33.3389 22.5176C34.1341 22.8249 34.5687 23.6778 34.35 24.5017C34.1151 25.385 34.2651 26.3322 34.7615 27.1001C34.9045 27.321 34.9885 27.5645 35.0174 27.8108C35.0182 27.817 35.0186 27.8232 35.0194 27.8294C35.0771 28.374 34.8649 28.9318 34.413 29.2989C34.2144 29.4608 34.0381 29.6446 33.8848 29.8452C33.8671 29.8662 33.8498 29.8885 33.8341 29.912C33.4704 30.4134 33.2532 31.0144 33.2186 31.6431C33.2009 31.9686 33.0905 32.2685 32.9134 32.5178C32.8977 32.5363 32.8829 32.5557 32.8693 32.5759C32.784 32.6851 32.6855 32.7835 32.5759 32.8684C32.5566 32.882 32.5376 32.8964 32.5195 32.9116C32.2702 33.0888 31.9703 33.1996 31.6444 33.2173C31.0223 33.2515 30.4274 33.4649 29.9289 33.8217C29.9038 33.8386 29.8795 33.8563 29.8568 33.8757C29.6525 34.031 29.465 34.2098 29.3006 34.4121C28.9331 34.8636 28.3753 35.0762 27.8307 35.0181ZM29.7637 42.1665L28.0552 36.6191L28.0638 36.6096C28.751 36.5973 29.4279 36.3678 29.9874 35.9369L31.3429 40.355L29.7637 42.1665ZM34.9906 40.4939L32.8429 39.8512L31.3169 34.8756C31.45 34.8332 31.5884 34.8051 31.7305 34.7977C32.2311 34.7701 32.7004 34.63 33.1148 34.4035L34.9906 40.4939ZM34.4047 33.1135C34.6313 32.6995 34.7714 32.2302 34.7986 31.7297C34.8064 31.5842 34.8357 31.4425 34.8798 31.3065L39.852 32.8408L40.4952 34.9897L34.4047 33.1135ZM42.1678 29.7628L40.3567 31.3411L35.9439 29.9791C36.3716 29.4209 36.5994 28.7464 36.6114 28.0617L36.62 28.0539L42.1678 29.7628ZM45.7657 9.05838C45.7587 9.0522 45.7521 9.04602 45.7455 9.03943C45.6969 8.9937 45.6487 8.94756 45.6009 8.901C45.5165 8.81943 45.432 8.73785 45.3471 8.65257C45.2685 8.57388 45.1906 8.49437 45.1135 8.41444C45.0793 8.37901 45.0452 8.34317 45.011 8.30733C44.9751 8.26984 44.9401 8.23235 44.9047 8.19444C44.0238 7.25429 43.2658 6.25769 42.7059 5.30806C43.6053 5.62405 44.8816 6.39035 46.2457 7.75444C47.6098 9.11853 48.3761 10.3945 48.6917 11.2938C47.7293 10.7261 46.7174 9.95487 45.7657 9.05838ZM52.2269 12.11L52.1849 12.1471C51.9179 12.3638 51.3016 12.3802 50.4426 12.1071C50.4237 10.4431 48.9813 8.25253 47.3642 6.63548C45.7459 5.01761 43.5533 3.57441 41.8889 3.55752C41.629 2.75003 41.6116 2.10197 41.856 1.81152L41.8906 1.77238C42.0261 1.6426 42.2531 1.57875 42.5473 1.57875C43.0005 1.57875 43.6114 1.72953 44.2871 2.02246C45.7076 2.63838 47.295 3.78247 48.7563 5.24379C52.1379 8.62497 52.8103 11.5011 52.2269 12.11Z" fill="#0B7C4F"/>
</g>
<defs>
<clipPath id="clip0_4762_834">
<rect width="54" height="54" fill="white"/>
</clipPath>
</defs>
</svg>
