<svg width="54" height="54" viewBox="0 0 54 54" fill="none" xmlns="http://www.w3.org/2000/svg">
<g clip-path="url(#clip0_4762_701)">
<path d="M46.092 7.90805C40.9922 2.80853 34.212 0 27 0C19.788 0 13.0078 2.80853 7.90805 7.90805C2.80853 13.0078 0 19.788 0 27C0 34.212 2.80853 40.9922 7.90805 46.092C13.0078 51.1915 19.788 54 27 54C34.212 54 40.9922 51.1915 46.092 46.092C51.1915 40.9922 54 34.212 54 27C54 19.788 51.1915 13.0078 46.092 7.90805ZM44.9732 44.9732C40.1724 49.7741 33.7894 52.418 27 52.418C20.2106 52.418 13.8276 49.7741 9.02675 44.9732C4.22592 40.1724 1.58203 33.7894 1.58203 27C1.58203 20.2106 4.22592 13.8276 9.02675 9.02675C13.8276 4.22592 20.2106 1.58203 27 1.58203C33.7894 1.58203 40.1724 4.22592 44.9732 9.02675C49.7741 13.8276 52.418 20.2106 52.418 27C52.418 33.7894 49.7741 40.1724 44.9732 44.9732Z" fill="#0B7C4F"/>
<path d="M41.8174 9.70565C37.4744 5.97669 31.9225 4.03617 26.1805 4.24131C20.41 4.44771 14.9821 6.81127 10.8967 10.8967C6.8113 14.982 4.44774 20.4101 4.24134 26.1807C4.03599 31.9214 5.97672 37.4747 9.70599 41.8178C9.8624 42.0001 10.0838 42.0935 10.3064 42.0935C10.4888 42.0935 10.6722 42.0308 10.8213 41.9026C11.1528 41.6181 11.1908 41.1186 10.9061 40.7872C7.43704 36.7468 5.63142 31.5796 5.82253 26.2373C6.01458 20.8678 8.21392 15.817 12.0155 12.0154C15.8171 8.2139 20.8677 6.01456 26.2372 5.82239C31.5798 5.63128 36.7465 7.4367 40.7869 10.9059C41.1184 11.1904 41.6178 11.1525 41.9023 10.8211C42.1869 10.4897 42.1489 9.99031 41.8174 9.70565Z" fill="#0B7C4F"/>
<path d="M44.2941 12.182C44.0095 11.8505 43.5101 11.8125 43.1787 12.0972C42.8472 12.3818 42.8092 12.8811 43.0938 13.2126C46.5631 17.2531 48.3685 22.4204 48.1774 27.7624C47.9853 33.1319 45.786 38.1825 41.9845 41.984C38.1829 45.7856 33.1321 47.9849 27.7625 48.177C22.42 48.3677 17.2531 46.5626 13.2126 43.0931C12.8811 42.8085 12.3817 42.8465 12.0972 43.178C11.8125 43.5095 11.8506 44.0088 12.182 44.2934C16.3166 47.8437 21.5475 49.7731 26.9934 49.7729C27.2678 49.7729 27.5436 49.7679 27.819 49.7581C33.5896 49.5517 39.0176 47.1881 43.1031 43.1027C47.1884 39.0175 49.5521 33.5895 49.7585 27.8189C49.9638 22.0783 48.0232 16.5251 44.2941 12.182Z" fill="#0B7C4F"/>
<path d="M27.002 7.60938C26.5651 7.60938 26.2109 7.96343 26.2109 8.40039V10.9367C26.2109 11.3736 26.5651 11.7276 27.002 11.7276C27.4388 11.7276 27.793 11.3736 27.793 10.9366V8.40039C27.793 7.96343 27.4388 7.60938 27.002 7.60938Z" fill="#0B7C4F"/>
<path d="M27.002 42.2725C26.5651 42.2725 26.2109 42.6265 26.2109 43.0635V45.5998C26.2109 46.0367 26.5651 46.3908 27.002 46.3908C27.4388 46.3908 27.793 46.0367 27.793 45.5998V43.0635C27.793 42.6265 27.4388 42.2725 27.002 42.2725Z" fill="#0B7C4F"/>
<path d="M45.6008 26.209H43.0645C42.6276 26.209 42.2734 26.5631 42.2734 27C42.2734 27.4369 42.6276 27.791 43.0645 27.791H45.6008C46.0376 27.791 46.3918 27.4369 46.3918 27C46.3918 26.5631 46.0376 26.209 45.6008 26.209Z" fill="#0B7C4F"/>
<path d="M10.9367 26.209H8.40039C7.96354 26.209 7.60938 26.5631 7.60938 27C7.60938 27.4369 7.96354 27.791 8.40039 27.791H10.9367C11.3736 27.791 11.7277 27.4369 11.7277 27C11.7277 26.5631 11.3736 26.209 10.9367 26.209Z" fill="#0B7C4F"/>
<path d="M12.7525 17.8608L11.2882 17.0153C10.9099 16.7969 10.4261 16.9265 10.2077 17.3048C9.98924 17.6831 10.1189 18.1669 10.4972 18.3853L11.9615 19.2309C12.0861 19.3028 12.222 19.337 12.3563 19.337C12.6297 19.337 12.8955 19.1951 13.042 18.9414C13.2605 18.563 13.1308 18.0793 12.7525 17.8608Z" fill="#0B7C4F"/>
<path d="M43.5025 35.6147L42.0382 34.7692C41.6599 34.5508 41.1761 34.6804 40.9577 35.0587C40.7392 35.437 40.8689 35.9208 41.2472 36.1392L42.7115 36.9848C42.8361 37.0567 42.9721 37.0909 43.1063 37.0909C43.3797 37.0909 43.6455 36.949 43.792 36.6953C44.0105 36.3169 43.8808 35.8332 43.5025 35.6147Z" fill="#0B7C4F"/>
<path d="M36.6961 10.2068C36.3178 9.98823 35.834 10.1179 35.6156 10.4963L34.7702 11.9606C34.5517 12.3389 34.6814 12.8227 35.0597 13.0411C35.1842 13.1131 35.3203 13.1472 35.4544 13.1472C35.7278 13.1472 35.9937 13.0054 36.1402 12.7516L36.9856 11.2873C37.2041 10.909 37.0745 10.4252 36.6961 10.2068Z" fill="#0B7C4F"/>
<path d="M18.9422 40.9587C18.5639 40.7402 18.0801 40.8698 17.8617 41.2482L17.0163 42.7126C16.7978 43.0909 16.9275 43.5747 17.3058 43.7931C17.4303 43.8651 17.5664 43.8992 17.7005 43.8992C17.9739 43.8992 18.2398 43.7573 18.3863 43.5036L19.2317 42.0392C19.4502 41.6608 19.3205 41.177 18.9422 40.9587Z" fill="#0B7C4F"/>
<path d="M43.792 17.3048C43.5735 16.9264 43.0897 16.7969 42.7115 17.0152L41.2472 17.8608C40.8689 18.0792 40.7392 18.563 40.9577 18.9413C41.1042 19.1951 41.3701 19.3369 41.6434 19.3369C41.7776 19.3369 41.9136 19.3028 42.0382 19.2308L43.5025 18.3853C43.8808 18.1669 44.0105 17.6831 43.792 17.3048Z" fill="#0B7C4F"/>
<path d="M13.042 35.0587C12.8236 34.6803 12.3398 34.5508 11.9615 34.7691L10.4972 35.6147C10.1189 35.8331 9.98924 36.3169 10.2077 36.6952C10.3542 36.949 10.6201 37.0908 10.8934 37.0908C11.0276 37.0908 11.1636 37.0567 11.2882 36.9847L12.7525 36.1392C13.1308 35.9208 13.2605 35.4371 13.042 35.0587Z" fill="#0B7C4F"/>
<path d="M19.2317 11.9606L18.3863 10.4962C18.1679 10.1178 17.6841 9.98829 17.3058 10.2067C16.9275 10.4251 16.7978 10.9089 17.0163 11.2872L17.8617 12.7516C18.0082 13.0053 18.2741 13.1472 18.5475 13.1472C18.6816 13.1472 18.8177 13.113 18.9422 13.0411C19.3205 12.8228 19.4502 12.339 19.2317 11.9606Z" fill="#0B7C4F"/>
<path d="M36.9856 42.7126L36.1402 41.2482C35.9218 40.8698 35.4381 40.7402 35.0597 40.9587C34.6814 41.1771 34.5517 41.6609 34.7702 42.0392L35.6156 43.5036C35.7621 43.7573 36.028 43.8992 36.3014 43.8992C36.4355 43.8992 36.5716 43.865 36.6961 43.7931C37.0745 43.5747 37.2041 43.0909 36.9856 42.7126Z" fill="#0B7C4F"/>
<path d="M37.9918 26.2091H29.3529C29.1057 25.476 28.5251 24.8955 27.792 24.6482V14.3184C27.792 13.8815 27.4378 13.5273 27.001 13.5273C26.5641 13.5273 26.21 13.8815 26.21 14.3184V24.6482C25.4769 24.8955 24.8964 25.476 24.649 26.2091H23.6191C23.1823 26.2091 22.8281 26.5633 22.8281 27.0001C22.8281 27.437 23.1823 27.7911 23.6191 27.7911H24.649C24.8963 28.5243 25.4769 29.1048 26.21 29.3521V30.382C26.21 30.8188 26.5641 31.173 27.001 31.173C27.4378 31.173 27.792 30.8188 27.792 30.382V29.3521C28.5251 29.1048 29.1056 28.5243 29.3529 27.7911H37.9919C38.4287 27.7911 38.7828 27.437 38.7828 27.0001C38.7828 26.5633 38.4286 26.2091 37.9918 26.2091ZM27.001 27.9C26.5048 27.9 26.1011 27.4963 26.1011 27.0001C26.1011 26.504 26.5049 26.1003 27.001 26.1003C27.4971 26.1003 27.9009 26.504 27.9009 27.0001C27.9009 27.4963 27.4972 27.9 27.001 27.9Z" fill="#0B7C4F"/>
</g>
<defs>
<clipPath id="clip0_4762_701">
<rect width="54" height="54" fill="white"/>
</clipPath>
</defs>
</svg>
