<svg width="54" height="54" viewBox="0 0 54 54" fill="none" xmlns="http://www.w3.org/2000/svg">
<path d="M46.4062 43.0312V6.75C46.4049 5.63152 45.96 4.55923 45.1691 3.76835C44.3782 2.97746 43.3059 2.53257 42.1874 2.53125H8.43744C7.31896 2.53257 6.24667 2.97746 5.45579 3.76835C4.66491 4.55923 4.22001 5.63152 4.21869 6.75V10.9688H10.9687V13.5428C9.13749 13.7087 7.39692 14.4151 5.96812 15.5724C4.53932 16.7297 3.48678 18.2856 2.94421 20.0424C2.40164 21.7992 2.39354 23.6777 2.92094 25.4391C3.44833 27.2006 4.48742 28.7655 5.90619 29.9351V41.2713L10.9687 36.2088V47.25C10.97 48.3685 11.4149 49.4408 12.2058 50.2317C12.9967 51.0225 14.069 51.4674 15.1874 51.4688H45.5624C46.6809 51.4674 47.7532 51.0225 48.5441 50.2317C49.335 49.4408 49.7799 48.3685 49.7812 47.25V43.0312H46.4062ZM5.90619 9.28125V6.75C5.90619 6.07867 6.17288 5.43484 6.64758 4.96014C7.12228 4.48543 7.76611 4.21875 8.43744 4.21875C9.10877 4.21875 9.7526 4.48543 10.2273 4.96014C10.702 5.43484 10.9687 6.07867 10.9687 6.75V9.28125H5.90619ZM4.21869 22.7812C4.21869 21.2793 4.66406 19.8112 5.49847 18.5624C6.33288 17.3136 7.51886 16.3403 8.90644 15.7655C10.294 15.1908 11.8209 15.0404 13.2939 15.3334C14.767 15.6264 16.12 16.3497 17.182 17.4117C18.244 18.4737 18.9673 19.8267 19.2603 21.2998C19.5533 22.7728 19.4029 24.2997 18.8282 25.6873C18.2534 27.0748 17.2801 28.2608 16.0313 29.0952C14.7825 29.9296 13.3143 30.375 11.8124 30.375C9.79914 30.3728 7.86894 29.572 6.44532 28.1484C5.0217 26.7248 4.22093 24.7946 4.21869 22.7812ZM7.59369 31.0379C8.89804 31.7112 10.3446 32.0625 11.8124 32.0625C13.2803 32.0625 14.7268 31.7112 16.0312 31.0379V37.1973L11.8124 32.9786L7.59369 37.1973V31.0379ZM17.7187 47.25C17.7187 47.9213 17.452 48.5652 16.9773 49.0399C16.5026 49.5146 15.8588 49.7812 15.1874 49.7812C14.5161 49.7812 13.8723 49.5146 13.3976 49.0399C12.9229 48.5652 12.6562 47.9213 12.6562 47.25V36.2088L17.7187 41.2713V29.9351C19.1375 28.7655 20.1765 27.2006 20.7039 25.4391C21.2313 23.6777 21.2232 21.7992 20.6807 20.0424C20.1381 18.2856 19.0856 16.7297 17.6568 15.5724C16.228 14.4151 14.4874 13.7087 12.6562 13.5428V6.75C12.6573 5.83673 12.3605 4.94801 11.8108 4.21875H42.1874C42.8585 4.21949 43.502 4.48641 43.9765 4.96095C44.451 5.43549 44.718 6.0789 44.7187 6.75V43.0312H17.7187V47.25ZM48.0937 47.25C48.093 47.9211 47.826 48.5645 47.3515 49.0391C46.877 49.5136 46.2335 49.7805 45.5624 49.7812H18.5608C19.1105 49.052 19.4073 48.1633 19.4062 47.25V44.7188H48.0937V47.25Z" fill="#0B7C4F"/>
<path d="M16.875 7.59375H28.6875V9.28125H16.875V7.59375Z" fill="#0B7C4F"/>
<path d="M24.4688 15.1875H30.375V16.875H24.4688V15.1875Z" fill="#0B7C4F"/>
<path d="M24.4688 20.25H36.2812V21.9375H24.4688V20.25Z" fill="#0B7C4F"/>
<path d="M24.4688 25.3125H36.2812V27H24.4688V25.3125Z" fill="#0B7C4F"/>
<path d="M24.4688 30.375H36.2812V32.0625H24.4688V30.375Z" fill="#0B7C4F"/>
<path d="M29.5312 37.9688H41.3438V39.6562H29.5312V37.9688Z" fill="#0B7C4F"/>
<path d="M38.8125 6.75C38.145 6.75 37.4925 6.94794 36.9375 7.31879C36.3824 7.68964 35.9499 8.21674 35.6944 8.83344C35.439 9.45014 35.3721 10.1287 35.5024 10.7834C35.6326 11.4381 35.954 12.0395 36.426 12.5115C36.898 12.9835 37.4994 13.3049 38.1541 13.4352C38.8088 13.5654 39.4874 13.4985 40.1041 13.2431C40.7208 12.9876 41.2479 12.5551 41.6187 12C41.9896 11.445 42.1875 10.7925 42.1875 10.125C42.1866 9.23016 41.8308 8.37222 41.198 7.73948C40.5653 7.10673 39.7073 6.75087 38.8125 6.75ZM38.8125 11.8125C38.4787 11.8125 38.1525 11.7135 37.875 11.5281C37.5975 11.3427 37.3812 11.0791 37.2535 10.7708C37.1257 10.4624 37.0923 10.1231 37.1574 9.79579C37.2225 9.46844 37.3833 9.16776 37.6193 8.93176C37.8553 8.69576 38.1559 8.53504 38.4833 8.46992C38.8106 8.40481 39.1499 8.43823 39.4583 8.56595C39.7666 8.69368 40.0302 8.90997 40.2156 9.18748C40.401 9.46498 40.5 9.79124 40.5 10.125C40.4994 10.5724 40.3214 11.0012 40.0051 11.3176C39.6887 11.6339 39.2599 11.8119 38.8125 11.8125Z" fill="#0B7C4F"/>
<path d="M11.8125 27.8438C12.8138 27.8438 13.7926 27.5468 14.6251 26.9906C15.4576 26.4343 16.1065 25.6436 16.4896 24.7186C16.8728 23.7935 16.9731 22.7756 16.7777 21.7936C16.5824 20.8116 16.1002 19.9095 15.3922 19.2015C14.6842 18.4935 13.7822 18.0114 12.8001 17.816C11.8181 17.6207 10.8002 17.7209 9.87517 18.1041C8.95011 18.4873 8.15946 19.1362 7.60319 19.9687C7.04691 20.8012 6.75 21.78 6.75 22.7813C6.75147 24.1235 7.28532 25.4103 8.2344 26.3594C9.18348 27.3084 10.4703 27.8423 11.8125 27.8438ZM11.8125 19.4063C12.48 19.4063 13.1325 19.6042 13.6875 19.975C14.2426 20.3459 14.6751 20.873 14.9306 21.4897C15.186 22.1064 15.2529 22.785 15.1227 23.4397C14.9924 24.0944 14.671 24.6957 14.199 25.1677C13.727 25.6397 13.1256 25.9612 12.4709 26.0914C11.8162 26.2216 11.1376 26.1548 10.5209 25.8993C9.90424 25.6439 9.37714 25.2113 9.00629 24.6563C8.63544 24.1013 8.4375 23.4488 8.4375 22.7813C8.43837 21.8864 8.79423 21.0285 9.42698 20.3957C10.0597 19.763 10.9177 19.4071 11.8125 19.4063Z" fill="#0B7C4F"/>
</svg>
