<svg width="54" height="54" viewBox="0 0 54 54" fill="none" xmlns="http://www.w3.org/2000/svg">
<path d="M48.1515 23.2902C48.5926 23.2902 48.9499 22.9328 48.9499 22.4917V5.12958C48.9499 2.30133 46.649 0.000316406 43.8207 0.000316406C41.9955 0.000316406 12.3343 0 10.7307 0C7.59669 0 5.04688 2.54971 5.04688 5.68382V51.7977C5.04688 53.012 6.0348 54 7.24927 54H38.0328C39.247 54 40.235 53.0122 40.235 51.7977V37.4271H46.9621C48.0583 37.4271 48.9501 36.5352 48.9501 35.4391V25.6855C48.9501 25.2445 48.5927 24.887 48.1517 24.887C47.7107 24.887 47.3532 25.2445 47.3532 25.6855V35.4391C47.3532 35.6547 47.1777 35.8302 46.9621 35.8302H40.235C40.2348 34.5441 40.231 7.4713 40.2307 5.12968C40.2307 3.42731 41.4415 2.00232 43.0471 1.67031C45.3223 1.20129 47.3532 2.91779 47.3532 5.12968V22.4918C47.353 22.9327 47.7106 23.2902 48.1515 23.2902ZM39.0334 3.14466C38.4506 4.52841 38.6354 3.85647 38.6336 36.6286C38.6336 36.6464 38.6379 51.7794 38.6379 51.7977C38.6379 52.1315 38.3664 52.4031 38.0325 52.4031H7.24917C6.91525 52.4031 6.64378 52.1315 6.64378 51.7977V5.68382C6.64378 3.43027 8.47714 1.5969 10.7307 1.5969H40.0455C39.6346 2.02922 39.2784 2.56342 39.0334 3.14466Z" fill="#0B7C4F"/>
<path d="M13.0068 6.61133C11.5083 6.61133 10.2891 7.83044 10.2891 9.32894C10.2891 10.8274 11.5083 12.0466 13.0068 12.0466C14.5053 12.0466 15.7244 10.8274 15.7244 9.32894C15.7244 7.83044 14.5053 6.61133 13.0068 6.61133ZM13.0068 10.4497C12.3888 10.4497 11.8861 9.94688 11.8861 9.32894C11.8861 8.711 12.3887 8.20823 13.0068 8.20823C13.6248 8.20823 14.1275 8.711 14.1275 9.32894C14.1275 9.94688 13.6246 10.4497 13.0068 10.4497Z" fill="#0B7C4F"/>
<path d="M20.7736 8.53027H19.2399C18.7988 8.53027 18.4414 8.88771 18.4414 9.32878C18.4414 9.76985 18.7988 10.1273 19.2399 10.1273H20.7736C21.2147 10.1273 21.5721 9.76985 21.5721 9.32878C21.5721 8.8876 21.2147 8.53027 20.7736 8.53027Z" fill="#0B7C4F"/>
<path d="M34.8294 8.53027H23.9704C23.5293 8.53027 23.1719 8.88771 23.1719 9.32878C23.1719 9.76985 23.5293 10.1273 23.9703 10.1273H34.8292C35.2703 10.1273 35.6277 9.76985 35.6277 9.32878C35.6278 8.8876 35.2705 8.53027 34.8294 8.53027Z" fill="#0B7C4F"/>
<path d="M13.0067 15.5039C11.5082 15.5039 10.2891 16.723 10.2891 18.2215C10.2891 19.72 11.5082 20.9391 13.0067 20.9391C14.5052 20.9391 15.7243 19.72 15.7243 18.2215C15.7243 16.723 14.5052 15.5039 13.0067 15.5039ZM13.0067 19.3423C12.3886 19.3423 11.886 18.8396 11.886 18.2216C11.886 17.6037 12.3887 17.1009 13.0067 17.1009C13.6246 17.1009 14.1274 17.6037 14.1274 18.2216C14.1274 18.8396 13.6245 19.3423 13.0067 19.3423Z" fill="#0B7C4F"/>
<path d="M34.8265 17.4229H19.2399C18.7988 17.4229 18.4414 17.7803 18.4414 18.2212C18.4414 18.6623 18.7988 19.0198 19.2399 19.0198H34.8265C35.2676 19.0198 35.625 18.6623 35.625 18.2212C35.6249 17.7803 35.2676 17.4229 34.8265 17.4229Z" fill="#0B7C4F"/>
<path d="M13.0067 24.3965C11.5082 24.3965 10.2891 25.6156 10.2891 27.1141C10.2891 28.6126 11.5082 29.8317 13.0067 29.8317C14.5052 29.8317 15.7243 28.6126 15.7243 27.1141C15.7243 25.6156 14.5052 24.3965 13.0067 24.3965ZM13.0067 28.235C12.3886 28.235 11.886 27.7323 11.886 27.1143C11.886 26.4964 12.3887 25.9936 13.0067 25.9936C13.6246 25.9936 14.1274 26.4964 14.1274 27.1143C14.1274 27.7323 13.6245 28.235 13.0067 28.235Z" fill="#0B7C4F"/>
<path d="M34.8284 26.3164H33.2946C32.8535 26.3164 32.4961 26.6738 32.4961 27.1149C32.4961 27.556 32.8535 27.9133 33.2946 27.9133H34.8284C35.2695 27.9133 35.6269 27.5559 35.6269 27.1149C35.6268 26.6738 35.2695 26.3164 34.8284 26.3164Z" fill="#0B7C4F"/>
<path d="M30.0989 26.3164H19.2399C18.7988 26.3164 18.4414 26.6738 18.4414 27.1149C18.4414 27.556 18.7988 27.9133 19.2399 27.9133H30.0989C30.5399 27.9133 30.8973 27.5559 30.8973 27.1149C30.8973 26.6738 30.5399 26.3164 30.0989 26.3164Z" fill="#0B7C4F"/>
<path d="M13.0067 33.1611C11.5082 33.1611 10.2891 34.3802 10.2891 35.8787C10.2891 37.3772 11.5082 38.5964 13.0067 38.5964C14.5052 38.5964 15.7243 37.3772 15.7243 35.8787C15.7243 34.3802 14.5052 33.1611 13.0067 33.1611ZM13.0067 36.9996C12.3886 36.9996 11.886 36.4968 11.886 35.8788C11.886 35.2609 12.3887 34.7581 13.0067 34.7581C13.6246 34.7581 14.1274 35.2609 14.1274 35.8788C14.1274 36.4968 13.6245 36.9996 13.0067 36.9996Z" fill="#0B7C4F"/>
<path d="M34.8265 35.0811H19.2399C18.7988 35.0811 18.4414 35.4385 18.4414 35.8796C18.4414 36.3206 18.7988 36.6781 19.2399 36.6781H34.8265C35.2676 36.6781 35.625 36.3206 35.625 35.8796C35.625 35.4385 35.2676 35.0811 34.8265 35.0811Z" fill="#0B7C4F"/>
<path d="M13.0067 42.0547C11.5082 42.0547 10.2891 43.2738 10.2891 44.7723C10.2891 46.2708 11.5082 47.4899 13.0067 47.4899C14.5052 47.4899 15.7243 46.2708 15.7243 44.7723C15.7243 43.2737 14.5052 42.0547 13.0067 42.0547ZM13.0067 45.8931C12.3886 45.8931 11.886 45.3903 11.886 44.7724C11.886 44.1545 12.3887 43.6517 13.0067 43.6517C13.6246 43.6517 14.1274 44.1545 14.1274 44.7724C14.1274 45.3902 13.6245 45.8931 13.0067 45.8931Z" fill="#0B7C4F"/>
<path d="M34.8265 43.9736H19.2399C18.7988 43.9736 18.4414 44.3311 18.4414 44.7721C18.4414 45.2132 18.7988 45.5706 19.2399 45.5706H34.8265C35.2676 45.5706 35.625 45.2132 35.625 44.7721C35.6249 44.3311 35.2676 43.9736 34.8265 43.9736Z" fill="#0B7C4F"/>
</svg>
