<svg width="54" height="54" viewBox="0 0 54 54" fill="none" xmlns="http://www.w3.org/2000/svg">
<path d="M43.3877 27.6268C42.9062 27.6268 42.5167 27.2373 42.5167 26.7558V24.8334C42.5167 24.352 42.9063 23.9624 43.3877 23.9624C43.8691 23.9624 44.2587 24.352 44.2587 24.8334V26.7558C44.2587 27.2373 43.8691 27.6268 43.3877 27.6268ZM54 29.3461V34.3413C54 36.0963 52.574 37.5223 50.8274 37.5223H47.6041C46.406 39.6317 44.7691 41.5218 42.744 43.1334L42.204 49.1327C42.0183 51.1662 40.3476 52.7019 38.3057 52.7019C36.4747 52.7019 34.9053 51.4446 34.4918 49.6558L33.9856 47.4282C29.8173 48.4999 25.3452 48.4999 21.1686 47.4282L20.6623 49.6558C20.2573 51.4446 18.6878 52.7019 16.8484 52.7019C14.8149 52.7019 13.1358 51.1662 12.9585 49.1327L12.4185 43.1334C8.16021 39.746 5.63052 35.0569 5.37323 30.1201C5.0085 30.209 4.63286 30.2573 4.25073 30.2573H4.13264C2.95133 30.232 1.88816 29.7764 1.12879 28.9748C-0.153767 27.6248 -0.364713 25.4562 0.6056 23.7012C0.841883 23.2793 1.36503 23.1274 1.78691 23.3552C2.2088 23.5915 2.36068 24.123 2.12444 24.5449C1.51689 25.6419 1.62659 26.9666 2.39446 27.7766C2.82475 28.2323 3.47447 28.5023 4.17482 28.5192C4.60279 28.51 5.0132 28.4256 5.39579 28.2723C5.87154 20.6575 11.6416 14.2282 19.6301 11.6086C19.4558 10.9421 19.3544 10.2465 19.3544 9.52568C19.3544 4.99459 23.0417 1.29883 27.5813 1.29883C32.1208 1.29883 35.8081 4.99459 35.8081 9.52568C35.8081 10.2419 35.7076 10.934 35.5345 11.5973C37.1889 12.1396 38.7708 12.8433 40.2548 13.7193C40.7695 13.3649 41.2927 13.0611 41.8495 12.8164C43.0308 12.2848 44.98 11.8967 46.271 12.2342C46.7772 12.3608 47.1738 12.6898 47.4185 13.1793C48.237 14.8415 47.0979 18.2672 46.6254 19.516C48.0766 21.5664 49.0386 23.794 49.5026 26.165H50.8274C52.574 26.165 54 27.591 54 29.3461ZM21.0926 9.52568C21.0926 11.6739 22.1531 13.5678 23.7684 14.7515C26.2725 14.315 28.8827 14.3147 31.3929 14.7526C33.0108 13.5731 34.0699 11.6792 34.0699 9.52568C34.0699 5.9565 31.1589 3.04546 27.5813 3.04546C24.0036 3.04546 21.0926 5.9565 21.0926 9.52568ZM52.2618 29.3461C52.2618 28.5529 51.6121 27.9116 50.8274 27.9116H48.7601C48.3298 27.9116 47.9669 27.591 47.8995 27.1691C47.5282 24.6546 46.5326 22.2921 44.9463 20.1657C44.7606 19.9126 44.7184 19.5835 44.845 19.3051C45.7141 17.2631 46.2457 14.3352 45.8238 13.9049C45.0812 13.7193 43.5793 13.9471 42.5668 14.4028C41.9593 14.6812 41.3939 15.0187 40.8371 15.449C40.5501 15.6768 40.1451 15.6937 39.8413 15.4997C38.3137 14.5394 36.6612 13.7864 34.9222 13.2258C34.5485 13.9649 34.0669 14.6392 33.4985 15.2301C34.2474 15.4413 34.9827 15.6894 35.6947 15.9836C36.1404 16.1665 36.3514 16.676 36.1677 17.1209C35.9856 17.5658 35.4787 17.7784 35.0312 17.593C30.3971 15.6791 24.7371 15.6842 20.1344 17.593C20.0255 17.6381 19.9124 17.6593 19.8009 17.6593C19.4598 17.6593 19.1349 17.4569 18.9963 17.1217C18.8125 16.6777 19.0235 16.1682 19.4675 15.9836C20.177 15.6896 20.9106 15.4415 21.6585 15.2303C21.0949 14.6429 20.6185 13.9742 20.2471 13.2427C12.5625 15.7195 7.09427 21.9748 7.09427 29.287C7.09427 34.0965 9.5328 38.7289 13.777 41.9859C13.9711 42.1378 14.0977 42.3572 14.123 42.6019L14.6883 48.9808C14.7896 50.1115 15.7177 50.9553 16.8484 50.9553C17.8694 50.9553 18.7385 50.2634 18.9663 49.2677L19.6751 46.1542C19.7257 45.9179 19.8776 45.7154 20.0885 45.5888C20.291 45.4707 20.5441 45.4454 20.772 45.5129C25.1765 46.8123 29.986 46.8123 34.3906 45.5129C34.4665 45.4876 34.5509 45.4707 34.6353 45.4707C34.7871 45.4707 34.939 45.5129 35.074 45.5888C35.285 45.7154 35.4284 45.9179 35.4875 46.1542L36.1963 49.2677C36.4156 50.2634 37.2932 50.9553 38.3057 50.9553C39.4364 50.9553 40.3646 50.1031 40.4742 48.9808L41.0396 42.6019C41.0649 42.3572 41.183 42.1378 41.3771 41.9859C43.495 40.3574 45.1572 38.4251 46.3132 36.2398C46.4651 35.9529 46.7604 35.7757 47.0895 35.7757H50.8274C51.6121 35.7757 52.2618 35.1344 52.2618 34.3413L52.2618 29.3461ZM22.9754 9.52913C22.9754 6.98919 25.0416 4.923 27.5815 4.923C30.1214 4.923 32.1885 6.9892 32.1885 9.52913C32.1885 12.0691 30.1215 14.136 27.5815 14.136C25.0416 14.136 22.9754 12.0691 22.9754 9.52913ZM24.7175 9.52913C24.7175 11.1087 26.0019 12.394 27.5815 12.394C29.162 12.394 30.4464 11.1087 30.4464 9.52913C30.4464 7.94951 29.162 6.6651 27.5815 6.6651C26.0019 6.6651 24.7175 7.94952 24.7175 9.52913Z" fill="#0B7C4F"/>
</svg>
