<svg width="54" height="54" viewBox="0 0 54 54" fill="none" xmlns="http://www.w3.org/2000/svg">
<path d="M10.9688 39.6562C10.4681 39.6562 9.97873 39.8047 9.56246 40.0828C9.1462 40.361 8.82177 40.7563 8.63018 41.2188C8.4386 41.6814 8.38847 42.1903 8.48614 42.6813C8.58381 43.1723 8.82489 43.6234 9.17889 43.9774C9.53289 44.3314 9.98391 44.5724 10.4749 44.6701C10.9659 44.7678 11.4749 44.7177 11.9374 44.5261C12.3999 44.3345 12.7953 44.01 13.0734 43.5938C13.3515 43.1775 13.5 42.6881 13.5 42.1875C13.4992 41.5164 13.2323 40.873 12.7578 40.3985C12.2832 39.9239 11.6398 39.657 10.9688 39.6562ZM10.9688 43.0312C10.8019 43.0312 10.6387 42.9818 10.5 42.8891C10.3612 42.7963 10.2531 42.6646 10.1892 42.5104C10.1254 42.3562 10.1087 42.1866 10.1412 42.0229C10.1738 41.8592 10.2541 41.7089 10.3721 41.5909C10.4901 41.4729 10.6405 41.3925 10.8041 41.36C10.9678 41.3274 11.1375 41.3441 11.2916 41.408C11.4458 41.4718 11.5776 41.58 11.6703 41.7187C11.763 41.8575 11.8125 42.0206 11.8125 42.1875C11.8123 42.4112 11.7233 42.6257 11.5651 42.7838C11.4069 42.942 11.1925 43.031 10.9688 43.0312Z" fill="#0B7C4F"/>
<path d="M43.0313 39.6562C42.5306 39.6562 42.0412 39.8047 41.625 40.0828C41.2087 40.361 40.8843 40.7563 40.6927 41.2188C40.5011 41.6814 40.451 42.1903 40.5486 42.6813C40.6463 43.1723 40.8874 43.6234 41.2414 43.9774C41.5954 44.3314 42.0464 44.5724 42.5374 44.6701C43.0284 44.7678 43.5374 44.7177 43.9999 44.5261C44.4624 44.3345 44.8578 44.01 45.1359 43.5938C45.414 43.1775 45.5625 42.6881 45.5625 42.1875C45.5617 41.5164 45.2948 40.873 44.8203 40.3985C44.3457 39.9239 43.7023 39.657 43.0313 39.6562ZM43.0313 43.0312C42.8644 43.0312 42.7012 42.9818 42.5625 42.8891C42.4237 42.7963 42.3156 42.6646 42.2517 42.5104C42.1879 42.3562 42.1712 42.1866 42.2037 42.0229C42.2363 41.8592 42.3166 41.7089 42.4346 41.5909C42.5526 41.4729 42.703 41.3925 42.8666 41.36C43.0303 41.3274 43.2 41.3441 43.3541 41.408C43.5083 41.4718 43.6401 41.58 43.7328 41.7187C43.8255 41.8575 43.875 42.0206 43.875 42.1875C43.8747 42.4112 43.7858 42.6257 43.6276 42.7838C43.4694 42.942 43.255 43.031 43.0313 43.0312Z" fill="#0B7C4F"/>
<path d="M53.0223 28.2308L45.4286 16.4183C45.3521 16.2995 45.247 16.2019 45.123 16.1342C44.999 16.0666 44.86 16.0312 44.7188 16.0312H34.5938V11.3906C34.5929 10.6077 34.2815 9.85704 33.7278 9.30341C33.1742 8.74978 32.4236 8.43837 31.6406 8.4375H3.79688C3.01392 8.43837 2.26329 8.74978 1.70966 9.30341C1.15603 9.85704 0.844615 10.6077 0.84375 11.3906V42.1875C0.84375 42.4113 0.932645 42.6259 1.09088 42.7841C1.24911 42.9424 1.46372 43.0312 1.6875 43.0312H5.12367C5.32649 44.4368 6.02902 45.7223 7.10253 46.652C8.17603 47.5817 9.54861 48.0934 10.9688 48.0934C12.3889 48.0934 13.7615 47.5817 14.835 46.652C15.9085 45.7223 16.611 44.4368 16.8138 43.0312H37.1862C37.389 44.4368 38.0915 45.7223 39.165 46.652C40.2385 47.5817 41.6111 48.0934 43.0312 48.0934C44.4514 48.0934 45.824 47.5817 46.8975 46.652C47.971 45.7223 48.6735 44.4368 48.8763 43.0312H52.3125C52.5363 43.0312 52.7509 42.9424 52.9091 42.7841C53.0674 42.6259 53.1562 42.4113 53.1562 42.1875V28.6875C53.1562 28.5256 53.1098 28.3671 53.0223 28.2308ZM10.9688 46.4062C10.1344 46.4062 9.31871 46.1588 8.62494 45.6953C7.93117 45.2317 7.39044 44.5728 7.07113 43.8019C6.75183 43.0311 6.66828 42.1828 6.83106 41.3645C6.99384 40.5461 7.39564 39.7944 7.98564 39.2044C8.57565 38.6144 9.32736 38.2126 10.1457 38.0498C10.9641 37.887 11.8123 37.9706 12.5832 38.2899C13.3541 38.6092 14.013 39.1499 14.4765 39.8437C14.9401 40.5375 15.1875 41.3531 15.1875 42.1875C15.1864 43.306 14.7416 44.3784 13.9506 45.1694C13.1597 45.9603 12.0873 46.4051 10.9688 46.4062ZM32.9062 41.3438H16.8138C16.611 39.9382 15.9085 38.6527 14.835 37.723C13.7615 36.7933 12.3889 36.2816 10.9688 36.2816C9.54861 36.2816 8.17603 36.7933 7.10253 37.723C6.02902 38.6527 5.32649 39.9382 5.12367 41.3438H2.53125V32.9062H32.9062V41.3438ZM32.9062 31.2188H2.53125V11.3906C2.53153 11.055 2.66496 10.7333 2.90225 10.496C3.13954 10.2587 3.4613 10.1253 3.79688 10.125H31.6406C31.9762 10.1253 32.298 10.2587 32.5352 10.496C32.7725 10.7333 32.906 11.055 32.9062 11.3906V31.2188ZM45.8852 20.25L50.7674 27.8438H38.8125V20.25H45.8852ZM43.0312 46.4062C42.1969 46.4062 41.3812 46.1588 40.6874 45.6953C39.9937 45.2317 39.4529 44.5728 39.1336 43.8019C38.8143 43.0311 38.7308 42.1828 38.8936 41.3645C39.0563 40.5461 39.4581 39.7944 40.0481 39.2044C40.6381 38.6144 41.3899 38.2126 42.2082 38.0498C43.0266 37.887 43.8748 37.9706 44.6457 38.2899C45.4166 38.6092 46.0755 39.1499 46.539 39.8437C47.0026 40.5375 47.25 41.3531 47.25 42.1875C47.2489 43.306 46.8041 44.3784 46.0131 45.1694C45.2222 45.9603 44.1498 46.4051 43.0312 46.4062ZM51.4688 34.5938H49.7812C49.5575 34.5938 49.3429 34.5049 49.1846 34.3466C49.0264 34.1884 48.9375 33.9738 48.9375 33.75C48.9375 33.5262 49.0264 33.3116 49.1846 33.1534C49.3429 32.9951 49.5575 32.9062 49.7812 32.9062H51.4688V34.5938ZM51.4688 31.2188H49.7812C49.1099 31.2188 48.4661 31.4854 47.9914 31.9601C47.5167 32.4348 47.25 33.0787 47.25 33.75C47.25 34.4213 47.5167 35.0652 47.9914 35.5399C48.4661 36.0146 49.1099 36.2812 49.7812 36.2812H51.4688V41.3438H48.8763C48.6735 39.9382 47.971 38.6527 46.8975 37.723C45.824 36.7933 44.4514 36.2816 43.0312 36.2816C41.6111 36.2816 40.2385 36.7933 39.165 37.723C38.0915 38.6527 37.389 39.9382 37.1862 41.3438H34.5938V17.7188H44.2579L44.801 18.5625H37.9688C37.745 18.5625 37.5304 18.6514 37.3721 18.8096C37.2139 18.9679 37.125 19.1825 37.125 19.4062V28.6875C37.125 28.9113 37.2139 29.1259 37.3721 29.2841C37.5304 29.4424 37.745 29.5312 37.9688 29.5312H51.4688V31.2188Z" fill="#0B7C4F"/>
<path d="M40.5 31.2188H37.9688C37.745 31.2188 37.5304 31.3076 37.3721 31.4659C37.2139 31.6241 37.125 31.8387 37.125 32.0625C37.125 32.2863 37.2139 32.5009 37.3721 32.6591C37.5304 32.8174 37.745 32.9062 37.9688 32.9062H40.5C40.7238 32.9062 40.9384 32.8174 41.0966 32.6591C41.2549 32.5009 41.3438 32.2863 41.3438 32.0625C41.3438 31.8387 41.2549 31.6241 41.0966 31.4659C40.9384 31.3076 40.7238 31.2188 40.5 31.2188Z" fill="#0B7C4F"/>
<path d="M22.7812 36.2812H29.5312C29.755 36.2812 29.9696 36.1924 30.1279 36.0341C30.2861 35.8759 30.375 35.6613 30.375 35.4375C30.375 35.2137 30.2861 34.9991 30.1279 34.8409C29.9696 34.6826 29.755 34.5938 29.5312 34.5938H22.7812C22.5575 34.5938 22.3429 34.6826 22.1846 34.8409C22.0264 34.9991 21.9375 35.2137 21.9375 35.4375C21.9375 35.6613 22.0264 35.8759 22.1846 36.0341C22.3429 36.1924 22.5575 36.2812 22.7812 36.2812Z" fill="#0B7C4F"/>
<path d="M29.5312 37.125H27C26.7762 37.125 26.5616 37.2139 26.4034 37.3721C26.2451 37.5304 26.1562 37.745 26.1562 37.9688C26.1562 38.1925 26.2451 38.4071 26.4034 38.5654C26.5616 38.7236 26.7762 38.8125 27 38.8125H29.5312C29.755 38.8125 29.9696 38.7236 30.1279 38.5654C30.2861 38.4071 30.375 38.1925 30.375 37.9688C30.375 37.745 30.2861 37.5304 30.1279 37.3721C29.9696 37.2139 29.755 37.125 29.5312 37.125Z" fill="#0B7C4F"/>
</svg>
