<svg width="52" height="52" viewBox="0 0 52 52" fill="none" xmlns="http://www.w3.org/2000/svg">
<g clip-path="url(#clip0_4762_685)">
<path d="M48.5866 23.4009H46.8536V9.53449C46.8536 9.05546 46.4654 8.66789 45.9868 8.66789H40.7375L39.0141 3.20784C38.9417 2.97995 38.7792 2.79225 38.565 2.68819C38.35 2.58391 38.1017 2.5737 37.8783 2.65864L30.8207 5.34837L27.6506 0.400805C27.5259 0.205936 27.3284 0.0686361 27.1018 0.0206247C26.8759 -0.0302109 26.6384 0.0138901 26.4462 0.142283L13.4342 8.66789H6.12107C2.77244 8.67158 0.0588152 11.3856 0.0546875 14.7343V45.9334C0.0588152 49.2821 2.77244 51.9961 6.12107 52H45.9868C46.4654 52 46.8536 51.6118 46.8536 51.1332V40.7334H48.5866C50.5014 40.7334 52.0534 39.1814 52.0534 37.2673V26.8675C52.0534 24.9524 50.5014 23.4009 48.5866 23.4009ZM48.5866 25.1341C49.544 25.1341 50.32 25.9096 50.32 26.8675C50.32 27.8247 49.544 28.6004 48.5866 28.6004H46.8536V25.1341H48.5866ZM45.12 10.4013V19.0675H44.0223L41.2854 10.4013H45.12ZM42.2052 19.0675H39.6789L37.2761 11.8603C37.1584 11.5064 36.8271 11.2672 36.4538 11.2675C35.5736 11.2703 34.7285 10.9205 34.1078 10.2964L33.5997 9.78823C33.3607 9.54904 33.004 9.47062 32.6864 9.58793L7.04523 19.0675H6.12107C4.96554 19.0672 3.85802 18.6045 3.0466 17.782L37.6381 4.6093L42.2052 19.0675ZM37.852 19.0675H12.0423L32.7674 11.4061L32.8821 11.5216C33.6718 12.3157 34.7048 12.8227 35.816 12.9607L37.852 19.0675ZM26.6608 2.07338L29.1626 5.98099L8.9494 13.6787L26.6608 2.07338ZM6.12107 10.4013H10.7884L2.04053 16.1327C1.87912 15.6841 1.79353 15.2111 1.78809 14.7343C1.79114 12.3424 3.72941 10.4037 6.12107 10.4013ZM45.12 50.2664H6.12107C3.72941 50.2636 1.79114 48.3251 1.78809 45.9334V18.9808C1.79635 18.9884 1.80526 18.9956 1.81308 19.0042C1.88086 19.0718 1.95255 19.1339 2.02315 19.1982C2.09311 19.2623 2.16849 19.3358 2.24562 19.4001C2.32295 19.4644 2.39747 19.5161 2.47351 19.5734C2.54976 19.6308 2.63144 19.6964 2.71443 19.7542C2.79764 19.8109 2.87824 19.855 2.95992 19.9056C3.0416 19.956 3.1285 20.0129 3.21975 20.0616C3.31099 20.1098 3.39745 20.148 3.48674 20.1924C3.57603 20.2362 3.66032 20.279 3.752 20.3205C3.84389 20.362 3.94904 20.3942 4.04745 20.4296C4.1463 20.4652 4.22082 20.4991 4.31206 20.5265C4.4209 20.5615 4.53322 20.586 4.6451 20.6134C4.732 20.634 4.81107 20.6605 4.8958 20.6777C5.02332 20.7044 5.15584 20.7198 5.28511 20.7383C5.35767 20.7481 5.42827 20.7633 5.50192 20.7711C5.70743 20.7915 5.91425 20.8013 6.12107 20.8011H7.24836L7.26074 20.8341L7.35351 20.8011H45.12V28.6004H35.587C32.2371 28.6004 29.5207 31.3165 29.5207 34.667C29.5207 38.0174 32.2371 40.7334 35.587 40.7334H45.12V50.2664ZM50.32 37.2673C50.32 38.2244 49.544 39.0002 48.5866 39.0002H35.587C33.1941 39.0002 31.2541 37.0602 31.2541 34.667C31.2541 32.2736 33.1941 30.3341 35.587 30.3341H48.5866C48.796 30.3319 49.0037 30.3106 49.2092 30.2706C49.2583 30.2622 49.3072 30.2524 49.3557 30.2407C49.5516 30.1983 49.7437 30.1383 49.9292 30.0627L49.9587 30.0486C50.0828 29.996 50.2031 29.9352 50.32 29.8685V37.2673Z" fill="#0B7C4F"/>
<path d="M18.75 23.4004H22.2168V25.1336H18.75V23.4004Z" fill="#0B7C4F"/>
<path d="M11.8164 23.4004H15.2828V25.1336H11.8164V23.4004Z" fill="#0B7C4F"/>
<path d="M39.5508 23.4004H42.5212V25.1336H39.5508V23.4004Z" fill="#0B7C4F"/>
<path d="M32.6172 23.4004H36.0836V25.1336H32.6172V23.4004Z" fill="#0B7C4F"/>
<path d="M5.097 23.2793L4.69141 24.9606C5.15935 25.0738 5.6386 25.1322 6.11958 25.1339H8.34875V23.4007H6.11958C5.77546 23.3999 5.43222 23.3592 5.097 23.2793Z" fill="#0B7C4F"/>
<path d="M25.6836 23.4004H29.1502V25.1336H25.6836V23.4004Z" fill="#0B7C4F"/>
<path d="M5.097 45.8115L4.69141 47.4926C5.15935 47.606 5.6386 47.6646 6.11958 47.6664H8.34875V45.933H6.11958C5.77546 45.9319 5.43222 45.8919 5.097 45.8115Z" fill="#0B7C4F"/>
<path d="M39.5508 45.9336H42.5212V47.667H39.5508V45.9336Z" fill="#0B7C4F"/>
<path d="M18.75 45.9336H22.2168V47.667H18.75V45.9336Z" fill="#0B7C4F"/>
<path d="M32.6172 45.9336H36.0836V47.667H32.6172V45.9336Z" fill="#0B7C4F"/>
<path d="M11.8164 45.9336H15.2828V47.667H11.8164V45.9336Z" fill="#0B7C4F"/>
<path d="M25.6836 45.9336H29.1502V47.667H25.6836V45.9336Z" fill="#0B7C4F"/>
<path d="M35.5883 32.0674C34.1525 32.0674 32.9883 33.2312 32.9883 34.6672C32.9883 36.1027 34.1525 37.2674 35.5883 37.2674C37.0241 37.2674 38.1881 36.1027 38.1881 34.6672C38.1881 33.2312 37.0241 32.0674 35.5883 32.0674ZM35.5883 35.534C35.1099 35.534 34.7217 35.1458 34.7217 34.6672C34.7217 34.1884 35.1099 33.8006 35.5883 33.8006C36.0669 33.8006 36.4551 34.1884 36.4551 34.6672C36.4551 35.1458 36.0669 35.534 35.5883 35.534Z" fill="#0B7C4F"/>
</g>
<defs>
<clipPath id="clip0_4762_685">
<rect width="52" height="52" fill="white"/>
</clipPath>
</defs>
</svg>
